<svg width="78" height="13" viewBox="0 0 78 13" fill="none" xmlns="http://www.w3.org/2000/svg">
<path d="M3.996 10.24C3.508 10.24 3.064 10.156 2.664 9.988C2.264 9.812 1.924 9.572 1.644 9.268C1.364 8.964 1.148 8.604 0.996 8.188C0.844 7.772 0.768 7.32 0.768 6.832V6.52C0.768 5.768 0.852 5.08 1.02 4.456C1.196 3.824 1.44 3.28 1.752 2.824C2.072 2.36 2.452 2 2.892 1.744C3.34 1.488 3.832 1.36 4.368 1.36C4.584 1.36 4.772 1.384 4.932 1.432C5.1 1.48 5.252 1.548 5.388 1.636C5.532 1.724 5.664 1.828 5.784 1.948C5.928 2.084 6.04 2.232 6.12 2.392C6.2 2.544 6.256 2.708 6.288 2.884C6.328 3.06 6.348 3.252 6.348 3.46C6.348 3.732 6.348 4.004 6.348 4.276C6.348 4.548 6.348 4.808 6.348 5.056C6.276 5.088 6.188 5.112 6.084 5.128C5.988 5.144 5.876 5.152 5.748 5.152C5.452 5.152 5.22 5.1 5.052 4.996C4.892 4.884 4.812 4.704 4.812 4.456C4.812 4.208 4.816 3.984 4.824 3.784C4.84 3.584 4.856 3.376 4.872 3.16C4.888 2.944 4.892 2.704 4.884 2.44L5.1 2.932C4.964 2.836 4.844 2.776 4.74 2.752C4.636 2.72 4.528 2.704 4.416 2.704C4.024 2.704 3.668 2.876 3.348 3.22C3.028 3.556 2.772 4.016 2.58 4.6C2.396 5.176 2.304 5.824 2.304 6.544V6.784C2.304 7.024 2.308 7.24 2.316 7.432C2.332 7.616 2.356 7.8 2.388 7.984C2.588 8.232 2.824 8.428 3.096 8.572C3.376 8.716 3.716 8.788 4.116 8.788C4.564 8.788 4.98 8.696 5.364 8.512C5.756 8.32 6.096 8.044 6.384 7.684H6.456C6.464 7.732 6.472 7.78 6.48 7.828C6.496 7.876 6.504 7.928 6.504 7.984C6.512 8.032 6.516 8.08 6.516 8.128C6.524 8.176 6.528 8.224 6.528 8.272C6.528 8.584 6.48 8.844 6.384 9.052C6.296 9.26 6.188 9.428 6.06 9.556C5.916 9.7 5.744 9.824 5.544 9.928C5.352 10.032 5.128 10.108 4.872 10.156C4.616 10.212 4.324 10.24 3.996 10.24ZM7.99931 8.548H11.5273C12.0953 8.548 12.5593 8.596 12.9193 8.692C13.2793 8.78 13.5433 8.904 13.7113 9.064C13.8873 9.216 13.9753 9.396 13.9753 9.604C13.9753 9.652 13.9713 9.7 13.9633 9.748C13.9633 9.788 13.9593 9.832 13.9513 9.88C13.9433 9.92 13.9273 9.96 13.9033 10H8.97131C8.69131 10 8.47531 9.968 8.32331 9.904C8.17931 9.84 8.07931 9.732 8.02331 9.58C7.97531 9.428 7.95131 9.232 7.95131 8.992C7.95131 8.928 7.95131 8.872 7.95131 8.824C7.95931 8.776 7.96731 8.732 7.97531 8.692C7.98331 8.644 7.99131 8.596 7.99931 8.548ZM8.08331 0.999999C8.31531 0.976 8.56731 0.956 8.83931 0.939999C9.11931 0.924 9.39531 0.912 9.66731 0.904C9.93931 0.888 10.1753 0.879999 10.3753 0.879999C10.7113 0.879999 10.9833 0.911999 11.1913 0.976C11.4073 1.032 11.5673 1.136 11.6713 1.288C11.7753 1.432 11.8273 1.64 11.8273 1.912C11.8273 2.488 11.8273 3.068 11.8273 3.652C11.8273 4.228 11.8273 4.808 11.8273 5.392C11.8273 5.976 11.8273 6.56 11.8273 7.144C11.8273 7.72 11.8273 8.296 11.8273 8.872H10.5313L10.7113 8.488C10.5993 8.352 10.5153 8.184 10.4593 7.984C10.4033 7.784 10.3753 7.548 10.3753 7.276C10.3753 6.86 10.3753 6.444 10.3753 6.028C10.3753 5.604 10.3753 5.18 10.3753 4.756C10.3753 4.332 10.3753 3.908 10.3753 3.484C10.3753 3.06 10.3753 2.636 10.3753 2.212L10.3273 2.164C9.86331 2.252 9.49131 2.324 9.21131 2.38C8.93931 2.428 8.73531 2.452 8.59931 2.452C8.48731 2.452 8.38331 2.424 8.28731 2.368C8.19931 2.312 8.12731 2.224 8.07131 2.104C8.02331 1.976 7.99931 1.808 7.99931 1.6C7.99931 1.488 8.00731 1.38 8.02331 1.276C8.03931 1.172 8.05931 1.08 8.08331 0.999999ZM18.0266 3.436C18.4186 3.436 18.7906 3.512 19.1426 3.664C19.4946 3.808 19.8026 4.032 20.0666 4.336C20.3386 4.64 20.5506 5.016 20.7026 5.464C20.8626 5.904 20.9426 6.416 20.9426 7V7.156C20.9426 7.756 20.8146 8.28 20.5586 8.728C20.3106 9.176 19.9626 9.524 19.5146 9.772C19.0666 10.012 18.5426 10.132 17.9426 10.132C17.5346 10.132 17.1546 10.072 16.8026 9.952C16.4506 9.824 16.1426 9.64 15.8786 9.4C15.6146 9.152 15.4066 8.84 15.2546 8.464C15.1106 8.088 15.0386 7.648 15.0386 7.144V7C15.0386 6.28 15.1626 5.652 15.4106 5.116C15.6666 4.58 16.0186 4.168 16.4666 3.88C16.9226 3.584 17.4426 3.436 18.0266 3.436ZM18.1946 4.792C17.8026 4.792 17.4746 4.88 17.2106 5.056C16.9546 5.232 16.7626 5.492 16.6346 5.836C16.5066 6.18 16.4426 6.6 16.4426 7.096V7.18C16.4426 7.46 16.4706 7.732 16.5266 7.996C16.5826 8.252 16.6786 8.48 16.8146 8.68C16.9586 8.72 17.1026 8.748 17.2466 8.764C17.3906 8.772 17.5546 8.776 17.7386 8.776C18.1546 8.776 18.4946 8.712 18.7586 8.584C19.0226 8.456 19.2186 8.264 19.3466 8.008C19.4746 7.752 19.5386 7.432 19.5386 7.048V6.976C19.5386 6.544 19.4986 6.156 19.4186 5.812C19.3386 5.46 19.2106 5.152 19.0346 4.888C18.9226 4.848 18.7986 4.824 18.6626 4.816C18.5346 4.8 18.3786 4.792 18.1946 4.792ZM25.1859 8.692C25.5299 8.692 25.8259 8.656 26.0739 8.584C26.3219 8.512 26.5219 8.42 26.6739 8.308C26.6819 8.188 26.6619 8.072 26.6139 7.96C26.5739 7.848 26.4859 7.748 26.3499 7.66C26.2139 7.564 26.0179 7.488 25.7619 7.432L24.4539 7.144C24.0059 7.04 23.6459 6.92 23.3739 6.784C23.1099 6.648 22.9139 6.484 22.7859 6.292C22.6659 6.1 22.6059 5.864 22.6059 5.584C22.6059 5.248 22.6939 4.948 22.8699 4.684C23.0539 4.412 23.3019 4.184 23.6139 4C23.9339 3.808 24.2899 3.664 24.6819 3.568C25.0819 3.472 25.4979 3.424 25.9299 3.424C26.2099 3.424 26.4459 3.436 26.6379 3.46C26.8299 3.476 26.9899 3.504 27.1179 3.544C27.2459 3.584 27.3419 3.64 27.4059 3.712C27.4779 3.784 27.5379 3.872 27.5859 3.976C27.6339 4.08 27.6699 4.2 27.6939 4.336C27.7179 4.472 27.7299 4.632 27.7299 4.816C27.7299 4.88 27.7219 4.944 27.7059 5.008C27.6979 5.072 27.6859 5.136 27.6699 5.2H27.5979C27.4619 5.128 27.3139 5.068 27.1539 5.02C27.0019 4.972 26.8259 4.936 26.6259 4.912C26.4339 4.888 26.2019 4.876 25.9299 4.876C25.5299 4.876 25.1899 4.908 24.9099 4.972C24.6299 5.036 24.4179 5.124 24.2739 5.236C24.1299 5.348 24.0579 5.476 24.0579 5.62C24.0579 5.708 24.0819 5.792 24.1299 5.872C24.1859 5.944 24.2939 6.012 24.4539 6.076C24.6139 6.14 24.8419 6.204 25.1379 6.268L26.2539 6.496C26.6779 6.584 27.0179 6.704 27.2739 6.856C27.5379 7.008 27.7299 7.192 27.8499 7.408C27.9699 7.616 28.0299 7.848 28.0299 8.104C28.0299 8.568 27.9219 8.952 27.7059 9.256C27.4899 9.552 27.1619 9.772 26.7219 9.916C26.2899 10.06 25.7379 10.132 25.0659 10.132C24.7379 10.132 24.4379 10.12 24.1659 10.096C23.9019 10.072 23.6659 10.036 23.4579 9.988C23.2579 9.932 23.0899 9.876 22.9539 9.82C22.8179 9.756 22.7179 9.692 22.6539 9.628C22.5419 9.508 22.4579 9.368 22.4019 9.208C22.3459 9.04 22.3179 8.812 22.3179 8.524C22.3179 8.412 22.3219 8.316 22.3299 8.236C22.3379 8.156 22.3499 8.08 22.3659 8.008H22.4379C22.6459 8.136 22.8379 8.244 23.0139 8.332C23.1899 8.42 23.3779 8.492 23.5779 8.548C23.7779 8.596 24.0059 8.632 24.2619 8.656C24.5179 8.68 24.8259 8.692 25.1859 8.692ZM32.6933 3.4C33.2453 3.4 33.7093 3.512 34.0853 3.736C34.4693 3.96 34.7613 4.268 34.9613 4.66C35.1693 5.044 35.2733 5.492 35.2733 6.004V6.052C35.2733 6.348 35.2533 6.58 35.2133 6.748C35.1813 6.908 35.1333 7.02 35.0693 7.084C35.0053 7.148 34.9293 7.18 34.8412 7.18H31.9973C31.7893 7.18 31.6013 7.156 31.4333 7.108C31.2653 7.052 31.1293 6.976 31.0253 6.88L30.7853 7L30.8213 6.292H33.7973C33.8213 6.22 33.8333 6.144 33.8333 6.064C33.8413 5.984 33.8453 5.912 33.8453 5.848C33.8453 5.632 33.8213 5.436 33.7733 5.26C33.7253 5.076 33.6453 4.908 33.5333 4.756C33.4213 4.716 33.3133 4.688 33.2093 4.672C33.1133 4.656 32.9773 4.648 32.8013 4.648C32.2493 4.648 31.8013 4.864 31.4573 5.296C31.1213 5.72 30.9533 6.368 30.9533 7.24V7.324C30.9533 7.564 30.9733 7.784 31.0133 7.984C31.0613 8.176 31.1253 8.352 31.2053 8.512C31.4133 8.624 31.6413 8.708 31.8893 8.764C32.1373 8.812 32.4413 8.836 32.8013 8.836C33.0813 8.836 33.3453 8.816 33.5933 8.776C33.8413 8.736 34.0773 8.672 34.3013 8.584C34.5333 8.496 34.7573 8.384 34.9733 8.248H35.0453C35.0613 8.312 35.0693 8.376 35.0693 8.44C35.0773 8.504 35.0813 8.572 35.0813 8.644C35.0813 8.876 35.0493 9.068 34.9853 9.22C34.9293 9.372 34.8453 9.504 34.7333 9.616C34.6053 9.744 34.4373 9.852 34.2293 9.94C34.0293 10.02 33.8053 10.076 33.5573 10.108C33.3173 10.148 33.0613 10.168 32.7893 10.168C32.3093 10.168 31.8693 10.096 31.4693 9.952C31.0693 9.808 30.7213 9.6 30.4253 9.328C30.1373 9.056 29.9093 8.728 29.7413 8.344C29.5813 7.952 29.5013 7.512 29.5013 7.024V6.94C29.5013 6.396 29.5813 5.908 29.7413 5.476C29.9013 5.044 30.1253 4.676 30.4133 4.372C30.7013 4.06 31.0413 3.82 31.4333 3.652C31.8253 3.484 32.2453 3.4 32.6933 3.4ZM60.9825 10.084C60.8625 10.116 60.7505 10.14 60.6465 10.156C60.5505 10.18 60.4425 10.196 60.3225 10.204C60.2105 10.212 60.0705 10.216 59.9025 10.216C59.5505 10.216 59.2585 10.168 59.0265 10.072C58.7945 9.976 58.6225 9.808 58.5105 9.568C58.3985 9.328 58.3425 9 58.3425 8.584V7.588C58.4785 7.532 58.6185 7.488 58.7625 7.456C58.9065 7.416 59.0545 7.384 59.2065 7.36C59.3665 7.336 59.5305 7.324 59.6985 7.324C59.9865 7.324 60.2225 7.372 60.4065 7.468C60.5985 7.564 60.7425 7.716 60.8385 7.924C60.9345 8.132 60.9825 8.408 60.9825 8.752V10.084ZM63.8218 10.048C63.7818 10.072 63.7018 10.088 63.5818 10.096C63.4618 10.104 63.3658 10.108 63.2938 10.108C63.1498 10.108 63.0138 10.084 62.8858 10.036C62.7658 9.996 62.6658 9.928 62.5858 9.832C62.5138 9.728 62.4778 9.588 62.4778 9.412C62.4778 8.62 62.4978 7.88 62.5378 7.192C62.5858 6.504 62.6338 5.868 62.6818 5.284C62.7378 4.7 62.7898 4.18 62.8378 3.724C62.8938 3.26 62.9338 2.868 62.9578 2.548C62.9738 2.308 62.9778 2.112 62.9698 1.96C62.9618 1.808 62.9418 1.672 62.9098 1.552C62.9738 1.536 63.0418 1.528 63.1138 1.528C63.1858 1.52 63.2658 1.512 63.3538 1.504C63.4498 1.496 63.5618 1.492 63.6898 1.492C64.0018 1.492 64.2538 1.516 64.4458 1.564C64.6378 1.612 64.7818 1.688 64.8778 1.792C64.9738 1.896 65.0338 2.036 65.0578 2.212C65.1138 2.556 65.1818 2.912 65.2618 3.28C65.3498 3.648 65.4458 4.016 65.5498 4.384C65.6618 4.752 65.7778 5.116 65.8978 5.476C66.0178 5.828 66.1458 6.168 66.2818 6.496C66.4178 6.816 66.5498 7.116 66.6778 7.396L66.2218 7.048H66.9298L66.4258 7.372C66.5778 7.076 66.7258 6.752 66.8698 6.4C67.0138 6.048 67.1498 5.676 67.2778 5.284C67.4058 4.884 67.5258 4.476 67.6378 4.06C67.7498 3.644 67.8498 3.228 67.9378 2.812C68.0258 2.388 68.1018 1.968 68.1658 1.552C68.2218 1.536 68.2818 1.528 68.3458 1.528C68.4098 1.52 68.4818 1.512 68.5618 1.504C68.6418 1.496 68.7418 1.492 68.8618 1.492C69.1738 1.492 69.4098 1.52 69.5698 1.576C69.7378 1.632 69.8578 1.732 69.9298 1.876C70.0018 2.02 70.0538 2.224 70.0858 2.488C70.1338 2.832 70.1738 3.172 70.2058 3.508C70.2378 3.844 70.2698 4.172 70.3018 4.492C70.3338 4.804 70.3618 5.116 70.3858 5.428C70.4098 5.74 70.4298 6.048 70.4458 6.352C70.4618 6.648 70.4778 6.952 70.4938 7.264C70.5098 7.568 70.5218 7.872 70.5298 8.176C70.5458 8.512 70.5618 8.792 70.5778 9.016C70.6018 9.24 70.6258 9.436 70.6498 9.604C70.6738 9.764 70.6978 9.908 70.7218 10.036C70.6578 10.06 70.5738 10.076 70.4698 10.084C70.3658 10.1 70.2538 10.108 70.1338 10.108C69.9018 10.108 69.7218 10.084 69.5938 10.036C69.4738 9.988 69.3858 9.904 69.3298 9.784C69.2818 9.664 69.2578 9.504 69.2578 9.304C69.2578 9.232 69.2578 9.14 69.2578 9.028C69.2578 8.908 69.2578 8.784 69.2578 8.656C69.2658 8.52 69.2698 8.388 69.2698 8.26C69.2698 8.068 69.2658 7.856 69.2578 7.624C69.2498 7.384 69.2378 7.136 69.2218 6.88C69.2058 6.616 69.1858 6.34 69.1618 6.052C69.1378 5.764 69.1098 5.468 69.0778 5.164C69.0538 4.86 69.0218 4.548 68.9818 4.228C68.9498 3.908 68.9178 3.588 68.8858 3.268L69.1258 3.652H68.5738L68.9218 3.232C68.8658 3.624 68.7818 4.036 68.6698 4.468C68.5578 4.892 68.4298 5.312 68.2858 5.728C68.1498 6.144 68.0058 6.54 67.8538 6.916C67.7098 7.284 67.5658 7.612 67.4218 7.9C67.2778 8.18 67.1418 8.404 67.0138 8.572C66.9578 8.596 66.8938 8.612 66.8218 8.62C66.7498 8.628 66.6738 8.632 66.5938 8.632C66.4818 8.632 66.3898 8.624 66.3178 8.608C66.2458 8.584 66.1778 8.544 66.1138 8.488C65.9938 8.352 65.8618 8.164 65.7178 7.924C65.5738 7.684 65.4258 7.4 65.2738 7.072C65.1218 6.744 64.9738 6.384 64.8298 5.992C64.6938 5.592 64.5658 5.164 64.4458 4.708C64.3258 4.252 64.2138 3.776 64.1098 3.28L64.4938 3.616H63.9178L64.1338 3.28C64.1018 3.608 64.0698 3.928 64.0378 4.24C64.0058 4.552 63.9778 4.856 63.9538 5.152C63.9298 5.448 63.9058 5.74 63.8818 6.028C63.8578 6.316 63.8338 6.6 63.8098 6.88C63.7938 7.152 63.7818 7.424 63.7738 7.696C63.7738 7.96 63.7738 8.228 63.7738 8.5C63.7738 8.804 63.7778 9.08 63.7858 9.328C63.7938 9.568 63.8058 9.808 63.8218 10.048ZM75.4087 3.436C75.9447 3.436 76.3967 3.544 76.7647 3.76C77.1327 3.976 77.4127 4.276 77.6047 4.66C77.8047 5.036 77.9047 5.464 77.9047 5.944V6.004C77.9047 6.276 77.8887 6.5 77.8567 6.676C77.8247 6.844 77.7767 6.968 77.7127 7.048C77.6487 7.128 77.5687 7.168 77.4727 7.168H74.4487C74.2647 7.168 74.1007 7.144 73.9567 7.096C73.8127 7.048 73.6927 6.984 73.5967 6.904L73.3807 7.024L73.3927 6.34H76.5967C76.6127 6.26 76.6247 6.176 76.6327 6.088C76.6487 6 76.6567 5.916 76.6567 5.836C76.6567 5.588 76.6247 5.372 76.5607 5.188C76.5047 4.996 76.4127 4.824 76.2847 4.672C76.1727 4.624 76.0567 4.592 75.9367 4.576C75.8247 4.552 75.6727 4.54 75.4807 4.54C74.8967 4.54 74.4247 4.768 74.0647 5.224C73.7047 5.672 73.5247 6.348 73.5247 7.252V7.36C73.5247 7.616 73.5487 7.848 73.5967 8.056C73.6527 8.256 73.7287 8.44 73.8247 8.608C74.0407 8.736 74.2767 8.832 74.5327 8.896C74.7887 8.952 75.1047 8.98 75.4807 8.98C75.7607 8.98 76.0247 8.96 76.2727 8.92C76.5207 8.872 76.7567 8.8 76.9807 8.704C77.2127 8.608 77.4327 8.484 77.6407 8.332H77.7127C77.7207 8.388 77.7287 8.448 77.7367 8.512C77.7447 8.568 77.7487 8.632 77.7487 8.704C77.7487 8.912 77.7207 9.088 77.6647 9.232C77.6087 9.368 77.5287 9.488 77.4247 9.592C77.2967 9.72 77.1287 9.828 76.9207 9.916C76.7207 9.996 76.4967 10.056 76.2487 10.096C76.0007 10.136 75.7327 10.156 75.4447 10.156C74.9887 10.156 74.5647 10.088 74.1727 9.952C73.7887 9.816 73.4527 9.62 73.1647 9.364C72.8767 9.1 72.6527 8.78 72.4927 8.404C72.3327 8.028 72.2527 7.6 72.2527 7.12V7C72.2527 6.44 72.3327 5.94 72.4927 5.5C72.6527 5.06 72.8767 4.688 73.1647 4.384C73.4527 4.072 73.7847 3.836 74.1607 3.676C74.5447 3.516 74.9607 3.436 75.4087 3.436Z" fill="black"/>
<path d="M39.9606 10.24C39.3286 10.24 38.7766 10.144 38.3046 9.952C37.8406 9.752 37.4526 9.48 37.1406 9.136C36.8286 8.784 36.5966 8.38 36.4446 7.924C36.2926 7.468 36.2166 6.976 36.2166 6.448V6.352C36.2166 5.44 36.3206 4.668 36.5286 4.036C36.7446 3.404 37.0326 2.892 37.3926 2.5C37.7526 2.1 38.1566 1.812 38.6046 1.636C39.0526 1.452 39.5166 1.36 39.9966 1.36C40.2366 1.36 40.4646 1.388 40.6806 1.444C40.9046 1.492 41.1086 1.564 41.2926 1.66C41.4846 1.756 41.6446 1.872 41.7726 2.008C42.0046 2.24 42.2006 2.508 42.3606 2.812C42.5286 3.116 42.6566 3.452 42.7446 3.82C42.8326 4.188 42.8766 4.584 42.8766 5.008C42.8766 5.152 42.8766 5.296 42.8766 5.44C42.8766 5.584 42.8766 5.728 42.8766 5.872C42.7246 5.912 42.5486 5.952 42.3486 5.992C42.1486 6.024 41.9326 6.04 41.7006 6.04C41.1886 6.04 40.8046 5.96 40.5486 5.8C40.3006 5.64 40.1766 5.392 40.1766 5.056C40.1766 4.84 40.1966 4.616 40.2366 4.384C40.2846 4.152 40.3446 3.928 40.4166 3.712C40.4966 3.496 40.5846 3.308 40.6806 3.148L40.7166 3.964C40.5726 3.908 40.4526 3.872 40.3566 3.856C40.2606 3.84 40.1526 3.832 40.0326 3.832C39.8486 3.832 39.6726 3.92 39.5046 4.096C39.3366 4.264 39.1966 4.548 39.0846 4.948C38.9806 5.34 38.9286 5.88 38.9286 6.568V6.664C38.9286 6.768 38.9286 6.888 38.9286 7.024C38.9366 7.152 38.9446 7.264 38.9526 7.36C39.0886 7.496 39.2526 7.592 39.4446 7.648C39.6366 7.696 39.8806 7.72 40.1766 7.72C40.6966 7.72 41.1766 7.64 41.6166 7.48C42.0566 7.32 42.4366 7.096 42.7566 6.808H42.8046C42.8206 6.856 42.8326 6.912 42.8406 6.976C42.8486 7.04 42.8566 7.112 42.8646 7.192C42.8726 7.272 42.8766 7.356 42.8766 7.444C42.8846 7.532 42.8886 7.624 42.8886 7.72C42.8886 8.16 42.8446 8.536 42.7566 8.848C42.6686 9.16 42.5446 9.396 42.3846 9.556C42.2486 9.692 42.0646 9.812 41.8326 9.916C41.6086 10.02 41.3406 10.1 41.0286 10.156C40.7166 10.212 40.3606 10.24 39.9606 10.24ZM49.7959 5.8C49.7959 5.896 49.7959 5.992 49.7959 6.088C49.7959 6.176 49.7959 6.272 49.7959 6.376C49.7959 6.472 49.7959 6.568 49.7959 6.664C49.7959 6.752 49.7959 6.844 49.7959 6.94C49.7959 7.076 49.7959 7.212 49.7959 7.348C49.7959 7.476 49.7959 7.608 49.7959 7.744C49.8039 7.744 49.8119 7.744 49.8199 7.744C49.8279 7.744 49.8359 7.744 49.8439 7.744C49.9079 7.744 49.9679 7.728 50.0239 7.696C50.0879 7.664 50.1399 7.632 50.1799 7.6H50.2519C50.2679 7.64 50.2799 7.72 50.2879 7.84C50.3039 7.952 50.3119 8.076 50.3119 8.212C50.3119 8.58 50.2719 8.9 50.1919 9.172C50.1119 9.436 50.0119 9.628 49.8919 9.748C49.7639 9.884 49.6159 9.98 49.4479 10.036C49.2879 10.092 49.1119 10.12 48.9199 10.12C48.7279 10.12 48.5319 10.076 48.3319 9.988C48.1399 9.892 47.9599 9.76 47.7919 9.592C47.6239 9.424 47.4879 9.228 47.3839 9.004C47.2799 8.772 47.2279 8.52 47.2279 8.248C47.2279 7.936 47.2279 7.628 47.2279 7.324C47.2279 7.02 47.2279 6.712 47.2279 6.4C47.2359 6.304 47.2479 6.212 47.2639 6.124C47.2799 6.028 47.2999 5.94 47.3239 5.86C47.3559 5.772 47.3879 5.696 47.4199 5.632C47.2839 5.584 47.1359 5.544 46.9759 5.512C46.8159 5.48 46.6519 5.46 46.4839 5.452C46.3159 5.436 46.1399 5.428 45.9559 5.428C45.7239 5.428 45.4919 5.436 45.2599 5.452C45.0359 5.468 44.8079 5.5 44.5759 5.548C44.3519 5.588 44.1279 5.644 43.9039 5.716H43.8319C43.7999 5.572 43.7759 5.436 43.7599 5.308C43.7519 5.172 43.7479 5.024 43.7479 4.864C43.7479 4.624 43.7679 4.412 43.8079 4.228C43.8479 4.044 43.9319 3.888 44.0599 3.76C44.1879 3.632 44.3439 3.532 44.5279 3.46C44.7199 3.388 44.9799 3.336 45.3079 3.304C45.6439 3.272 46.0959 3.256 46.6639 3.256C47.0879 3.256 47.4879 3.328 47.8639 3.472C48.2399 3.608 48.5719 3.796 48.8599 4.036C49.1479 4.276 49.3759 4.548 49.5439 4.852C49.7119 5.156 49.7959 5.472 49.7959 5.8ZM45.9679 7.708C45.9679 7.828 45.9919 7.912 46.0399 7.96C46.0879 8 46.1839 8.02 46.3279 8.02C46.5039 8.02 46.6599 8.012 46.7959 7.996C46.9319 7.972 47.0639 7.932 47.1919 7.876C47.3279 7.82 47.4759 7.748 47.6359 7.66L47.7079 8.932H47.2759C47.1879 9.156 47.0599 9.36 46.8919 9.544C46.7319 9.72 46.5279 9.86 46.2799 9.964C46.0319 10.068 45.7359 10.12 45.3919 10.12C44.9759 10.12 44.6199 10.04 44.3239 9.88C44.0279 9.712 43.7999 9.484 43.6399 9.196C43.4879 8.9 43.4119 8.56 43.4119 8.176V8.068C43.4119 7.812 43.4719 7.564 43.5919 7.324C43.7119 7.076 43.8719 6.856 44.0719 6.664C44.2719 6.464 44.4959 6.308 44.7439 6.196C44.9919 6.076 45.2479 6.016 45.5119 6.016C45.8559 6.016 46.1599 6.04 46.4239 6.088C46.6879 6.128 46.9199 6.188 47.1199 6.268C47.3279 6.34 47.5039 6.428 47.6479 6.532C47.7359 6.588 47.7999 6.664 47.8399 6.76C47.8879 6.848 47.9159 6.956 47.9239 7.084C47.9399 7.212 47.9479 7.364 47.9479 7.54C47.7959 7.476 47.6399 7.428 47.4799 7.396C47.3199 7.364 47.1599 7.34 46.9999 7.324C46.8479 7.308 46.6999 7.3 46.5559 7.3C46.4599 7.3 46.3679 7.304 46.2799 7.312C46.1919 7.312 46.1039 7.32 46.0159 7.336C45.9999 7.392 45.9879 7.448 45.9799 7.504C45.9719 7.56 45.9679 7.62 45.9679 7.684V7.708ZM50.5832 3.4C50.7032 3.368 50.8232 3.344 50.9432 3.328C51.0632 3.312 51.1832 3.3 51.3032 3.292C51.4312 3.284 51.5592 3.28 51.6872 3.28C52.1112 3.28 52.4552 3.344 52.7192 3.472C52.9832 3.6 53.1752 3.8 53.2952 4.072C53.4232 4.344 53.4872 4.704 53.4872 5.152C53.4872 5.752 53.4872 6.352 53.4872 6.952C53.4872 7.544 53.4872 8.14 53.4872 8.74C53.4872 9.332 53.4872 9.924 53.4872 10.516C53.4872 11.116 53.4872 11.716 53.4872 12.316C53.3832 12.332 53.2752 12.348 53.1632 12.364C53.0592 12.38 52.9472 12.388 52.8272 12.388C52.7152 12.396 52.5992 12.4 52.4792 12.4C52.0872 12.4 51.7632 12.328 51.5072 12.184C51.2592 12.04 51.0752 11.824 50.9552 11.536C50.8432 11.248 50.7872 10.884 50.7872 10.444C50.7872 10.036 50.7872 9.628 50.7872 9.22C50.7872 8.804 50.7872 8.38 50.7872 7.948C50.7872 7.508 50.7872 7.052 50.7872 6.58C50.7872 6.108 50.7872 5.608 50.7872 5.08C50.7872 4.736 50.7712 4.424 50.7392 4.144C50.7072 3.856 50.6552 3.608 50.5832 3.4ZM55.4072 3.256C55.7832 3.256 56.1112 3.364 56.3912 3.58C56.6712 3.796 56.8912 4.084 57.0512 4.444C57.2112 4.804 57.2912 5.2 57.2912 5.632V5.728C57.2912 6.592 57.2392 7.312 57.1352 7.888C57.0392 8.456 56.8992 8.904 56.7152 9.232C56.5312 9.552 56.3072 9.78 56.0432 9.916C55.7792 10.052 55.4832 10.12 55.1552 10.12C54.9152 10.12 54.6952 10.076 54.4952 9.988C54.2952 9.892 54.1192 9.764 53.9672 9.604C53.8152 9.436 53.6792 9.244 53.5592 9.028H53.4152V7.96C53.4712 7.968 53.5432 7.98 53.6312 7.996C53.7192 8.012 53.8112 8.02 53.9072 8.02C54.0192 8.02 54.1232 7.992 54.2192 7.936C54.3152 7.872 54.3912 7.74 54.4472 7.54C54.5112 7.332 54.5432 7.016 54.5432 6.592V6.508C54.5432 6.356 54.5392 6.216 54.5312 6.088C54.5312 5.96 54.5272 5.84 54.5192 5.728C54.4712 5.712 54.4192 5.7 54.3632 5.692C54.3152 5.684 54.2632 5.68 54.2072 5.68C54.1112 5.68 54.0152 5.708 53.9192 5.764C53.8232 5.812 53.7312 5.892 53.6432 6.004C53.5552 6.116 53.4752 6.268 53.4032 6.46V4.732H53.5592C53.7192 4.396 53.8912 4.12 54.0752 3.904C54.2592 3.688 54.4592 3.528 54.6752 3.424C54.8992 3.312 55.1432 3.256 55.4072 3.256Z" fill="#DB2677"/>
</svg>
